# xmcd
#
# Track frame offsets: 
#        187
#        15592
#        29060
#        43187
#        57925
#        72962
#        90162
#        106385
#        123840
#        142610
#
# Disc length: 2120 seconds
#
# Revision: 4
# Processed by: cddbd v1.5.2PL0 Copyright (c) Steve Scherf et al.
# Submitted via: ExactAudioCopyFreeDBPlugin 1.0
#
DISCID=7b08460a
DTITLE=Cocteau Twins / Blue Bell Knoll
DYEAR=1988
DGENRE=Dream Pop
TTITLE0=Blue Bell Knoll
TTITLE1=Athol-Brose
TTITLE2=Carolyn's Fingers
TTITLE3=For Phoebe Still a Baby
TTITLE4=The Itchy Glowbo Blow
TTITLE5=Cico Buff
TTITLE6=Suckling the Mender
TTITLE7=Spooning Good Singing Gum
TTITLE8=A Kissed Out Red Floatboat
TTITLE9=Ella Megalast Burls Forever
EXTD=
EXTT0=
EXTT1=
EXTT2=
EXTT3=
EXTT4=
EXTT5=
EXTT6=
EXTT7=
EXTT8=
EXTT9=
PLAYORDER=
.
